<?xml version="1.0" encoding="utf-8"?>
<!-- Generator: Adobe Illustrator 25.0.1, SVG Export Plug-In . SVG Version: 6.00 Build 0)  -->
<svg version="1.1" id="Group_23" xmlns="http://www.w3.org/2000/svg" xmlns:xlink="http://www.w3.org/1999/xlink" x="0px" y="0px"
	 viewBox="0 0 209.3 57.9" style="enable-background:new 0 0 209.3 57.9;" xml:space="preserve">
<style type="text/css">
	.st0{fill:#443322;}
</style>
<g>
	<g>
		<g>
			<path class="st0" d="M20.2,23.1c-2.9,0.7-6.9,1.2-9.5,1.3c-0.3,2.8-0.7,5.1-1,5.9c1.7-1.4,4.4-2.4,6.3-2.4c3.3,0,5.3,1.8,5.3,4.8
				c0,4.4-4.5,5.9-11.7,6.1c-0.1-0.4-0.2-1.1-0.4-1.5c6.4-0.1,10.5-1.2,10.5-4.6c0-2-1.3-3.4-3.9-3.4c-2,0-5.4,1.2-6.8,3.4L7.4,32
				c0.7-0.8,1.4-4,1.8-7.6H4v-1.6c0.9,0,3.7,0,5.3,0c0.1-1.3,0.1-2.7,0.1-4l2.4,0.2c0,0.4-0.3,0.4-0.7,0.5c0,1.1-0.1,2.2-0.2,3.3
				c2.4-0.1,6.4-0.6,9.1-1.4L20.2,23.1z"/>
		</g>
		<g>
			<path class="st0" d="M31.9,33c2.1,0.7,4.6,2,6.2,3.2l-0.9,1.2c-1.3-1.1-3.6-2.4-5.3-3c0.1,1.6,0.2,4.2-3.3,4.2
				c-2.2,0-4.3-0.8-4.3-3c0-1.8,1.9-3,4.1-3c0.6,0,1.4,0,2,0.2c0-0.5,0-0.8-0.1-1.2c-0.2-2.3-0.3-6-0.3-8.6l1.9,0.1
				c0,0.2-0.2,0.4-0.5,0.4c0,0.5,0,2.8,0,3.4c1.4,0,3.9-0.3,5.8-0.6l0.1,1.4c-1.8,0.3-4.3,0.5-5.9,0.6c0,1.3,0.1,2.4,0.2,3.6
				L31.9,33z M28.7,33.7c-2.2,0-3.1,1-3.1,2c0,1.2,1.2,1.7,3,1.7c2.1,0,2.1-1.6,2.1-2.3c0-0.3,0-0.7,0-1.1
				C30,33.8,29.3,33.7,28.7,33.7z"/>
		</g>
		<g>
			<path class="st0" d="M40.5,27.4c0.4-0.1,1.2-0.3,2-0.5c2.8-0.8,6-1.6,8-1.6c3,0,5.7,1.6,5.7,5.2c0,4.9-4.8,6.7-10.8,7.1
				c-0.1-0.3-0.3-1.1-0.4-1.4c5.2-0.4,9.6-1.9,9.6-5.7c0-2.8-2-4-4.3-3.9c-1.8,0-4.6,0.7-7.4,1.6c-0.5,0.2-1.1,0.4-1.4,0.5
				c0,0.2-0.2,0.3-0.4,0.4L40.5,27.4z"/>
		</g>
		<g>
			<path class="st0" d="M74.8,26.5c0,0-0.1,0-0.2,0c-0.2,0-0.3,0-0.5-0.1c-6.6,1.9-12.6,4.8-12.5,7.8c0,2.1,2.4,2.9,5.9,2.9
				c3.6,0,6.3-0.3,7.9-0.5l0.1,1.6c-2,0.3-5.3,0.4-7.9,0.4c-4.4,0-7.6-1-7.6-4.3c0-2.4,2.4-4.5,5.8-6.3c-0.8-1.4-1-3.9-1-8.9
				l2.4,0.2c0,0.3-0.2,0.5-0.7,0.5c0,3.9,0.1,6.3,0.7,7.5c2.1-1,4.5-1.9,6.9-2.7L74.8,26.5z"/>
		</g>
		<g>
			<path class="st0" d="M81.7,21.6c0,0.2-0.3,0.3-0.6,0.4c-0.3,1.7-0.4,3.7-0.4,5.5c0,0.8,0,1.6,0.1,2.3c0.3,3.8,1.8,6.1,3.5,6
				c0.9,0,2-2.3,2.8-4.7c0.3,0.3,0.9,0.7,1.3,1c-1,3-2.3,5.4-4.1,5.5c-2.8,0-4.8-3.4-5.1-7.6c-0.1-0.8-0.1-1.8-0.1-2.8
				c0-2,0.1-4.1,0.3-6L81.7,21.6z M96.4,31.9c-0.6-3.9-2.6-6.7-5.6-8.3l1-1.2c3.2,1.7,5.6,4.9,6.3,9L96.4,31.9z"/>
		</g>
		<g>
			<path class="st0" d="M100.2,27.4c0.4-0.1,1.2-0.3,2-0.5c2.8-0.8,6-1.6,8-1.6c3,0,5.7,1.6,5.7,5.2c0,4.9-4.8,6.7-10.8,7.1
				c-0.1-0.3-0.3-1.1-0.4-1.4c5.2-0.4,9.6-1.9,9.6-5.7c0-2.8-2-4-4.3-3.9c-1.8,0-4.6,0.7-7.4,1.6c-0.5,0.2-1.1,0.4-1.4,0.5
				c0,0.2-0.2,0.3-0.4,0.4L100.2,27.4z"/>
		</g>
		<g>
			<path class="st0" d="M119.2,35.1c1.3-0.8,3.6-2.6,5.4-4.2l0.8,1.2c-1.5,1.4-3.6,3.1-4.7,4c0,0.2-0.1,0.5-0.2,0.6L119.2,35.1z
				 M125.4,19.3c2.2,1.4,5.5,2.5,8.3,2.7l-0.3,1.4c-0.3,0-0.6-0.1-0.9-0.1c-1.1,0-2,0.4-3.4,1.7l-1.3-0.6c0.6-0.6,1.5-1.4,2.2-1.6
				c-1.6-0.4-3.6-1.1-5.5-2.3L125.4,19.3z M128.3,26.4c-0.4,0.6-0.6,1.2-0.6,1.7c0,0.9,0.6,1.7,2.1,2.7c1.8,1.2,2.7,2.7,2.7,4.3
				c0,2-1.6,3.4-3.6,3.4c-1.1,0-2.4-0.5-4.3-1.5c0.2-0.4,0.3-0.8,0.4-1.3c1.9,1,3,1.3,3.7,1.3c1.4,0,2.2-0.8,2.2-2
				c0-1-0.7-2.3-2.3-3.4c-1.6-1.1-2.4-2.2-2.4-3.4c0-0.7,0.2-1.5,0.8-2.3L128.3,26.4z M133.3,29c2.6,1,5,3.1,6,6.1l-1.4,0.8
				c-0.9-2.7-3.1-4.9-5.4-5.8L133.3,29z M137.1,18.5c1.4,0,2.5,1.1,2.5,2.5c0,1.4-1.1,2.5-2.5,2.5c-1.4,0-2.5-1.1-2.5-2.5
				C134.7,19.6,135.8,18.5,137.1,18.5z M138.8,21c0-0.9-0.8-1.7-1.7-1.7c-0.9,0-1.7,0.8-1.7,1.7c0,0.9,0.8,1.7,1.7,1.7
				C138.1,22.7,138.8,21.9,138.8,21z"/>
		</g>
		<g>
			<path class="st0" d="M153.4,39.1c-2.2-2.6-5.7-5.9-8.7-8.3c-1.1-0.9-1.5-1.5-1.5-2.3c0-0.6,0.4-1.3,1.2-2c2-1.9,5.8-5.5,7.9-7.6
				l1.9,1.2c0,0-0.2,0.2-0.5,0.2c-0.1,0-0.2,0-0.3,0c-2.2,2.1-5.7,5.1-7.5,6.9c-0.5,0.5-1,1-1,1.3c0,0.4,0.4,0.8,1.2,1.4
				c2.9,2.3,6.1,5.1,8.8,8.1L153.4,39.1z"/>
		</g>
		<g>
			<path class="st0" d="M163.3,36.1c0,1.7-1.4,3.1-3.1,3.1c-1.7,0-3.1-1.4-3.1-3.1c0-1.7,1.4-3.1,3.1-3.1
				C162,33,163.3,34.5,163.3,36.1z M162.5,36.1c0-1.3-1-2.3-2.3-2.3c-1.3,0-2.3,1-2.3,2.3c0,1.3,1,2.3,2.3,2.3
				C161.5,38.4,162.5,37.3,162.5,36.1z"/>
		</g>
		<g>
			<path class="st0" d="M178.6,18.7c-2.4,2-4.4,5.7-4.4,10.2c0,4.6,2,8.3,4.4,10.2v0.1h-1.3c-2.2-2-4.2-5.7-4.2-10.3s2-8.3,4.2-10.3
				h1.3V18.7z"/>
		</g>
		<g>
			<path class="st0" d="M182.8,26.5c-0.8,1.4-1.8,2.6-2.7,3.7c-0.2-0.4-0.5-1-0.8-1.4c2.1-2.3,4.3-6.1,5.5-10l1.8,0.6
				c-0.1,0.2-0.2,0.2-0.5,0.2c-0.6,1.6-1.3,3.1-2,4.6l0.6,0.2c0,0.1-0.2,0.2-0.4,0.3v14.7h-1.4V26.5z M198.3,25.8l0.3-0.1
				c0.5,0.2,0.7,0.3,1,0.4c0,0.1-0.1,0.2-0.2,0.2c-0.8,3.3-2.1,6-3.9,8.2c1.5,1.5,3.3,2.7,5.3,3.4c-0.4,0.3-0.8,0.9-1,1.3
				c-2-0.8-3.8-2-5.3-3.6c-1.5,1.6-3.3,2.8-5.3,3.6c-0.2-0.4-0.7-1-1-1.2c2-0.8,3.8-2,5.3-3.5c-1.6-1.9-2.7-4.2-3.6-6.8l1.3-0.4
				c0.7,2.3,1.8,4.3,3.2,6.1c1.4-1.7,2.5-3.8,3.2-6.3h-8.5c0,3.7-0.5,8.7-2.8,12.1c-0.3-0.3-0.9-0.8-1.2-0.9
				c2.3-3.4,2.6-8.1,2.6-11.7v-6.9h12.5v1.4h-11v4.6H198.3z"/>
		</g>
		<g>
			<path class="st0" d="M201.5,39.1c2.4-2,4.4-5.7,4.4-10.2c0-4.6-2-8.3-4.4-10.2v-0.1h1.3c2.3,2,4.2,5.7,4.2,10.3s-2,8.3-4.2,10.3
				h-1.3V39.1z"/>
		</g>
	</g>
</g>
</svg>
